# xmcd
#
# Track frame offsets:
#	150
#	17576
#	38782
#	59386
#	78742
#	104591
#	118484
#	142441
#	182153
#
# Disc length: 2609 seconds
#
# Revision: 0
# Processed by: cddbd v1.5.2PL0 Copyright (c) Steve Scherf et al.
# Submitted via: EasyCDDAExtractor 2010.4.0.0
#
DISCID=890a2f09
DTITLE=Big Shanty - Collection
DYEAR=2011
DGENRE=Blues
TTITLE0=Wisky Woman
TTITLE1=Stop Pushing Me
TTITLE2=They Say It's Raining
TTITLE3=Got A Hold On Me
TTITLE4=Queen Of Hearts Has Disappeared
TTITLE5=Right Combination
TTITLE6=World Of Trouble
TTITLE7=Smoke and Mirrors
TTITLE8=100 Pound Hammer
EXTD=
EXTT0=
EXTT1=
EXTT2=
EXTT3=
EXTT4=
EXTT5=
EXTT6=
EXTT7=
EXTT8=
PLAYORDER=
